<?xml version="1.0" encoding="UTF-8"?>
<!DOCTYPE svg PUBLIC "-//W3C//DTD SVG 1.1//EN" "http://www.w3.org/Graphics/SVG/1.1/DTD/svg11.dtd">
<svg version="1.1" xmlns="http://www.w3.org/2000/svg" xmlns:xlink="http://www.w3.org/1999/xlink" x="0" y="0" width="200" height="200" viewBox="0, 0, 200, 200">
  <g id="g76">
    <g>
      <g id="g10">
        <path d="M74.297,129.567 L74.297,118.502 L52.398,118.502 C35.906,118.502 22.537,131.871 22.537,148.364 L22.537,148.364 L55.501,148.364 C65.882,148.364 74.297,139.948 74.297,129.567 z" fill="#3FAE2A" id="path2"/>
        <path d="M27.863,148.364 C30.209,134.212 42.498,123.419 57.315,123.419 L74.298,123.419 L74.298,118.502 L52.398,118.502 C35.907,118.502 22.537,131.871 22.537,148.364 z" fill="#379624" id="path4"/>
        <path d="M51.774,141.919 C50.158,141.919 48.847,140.608 48.847,138.992 C48.847,137.376 50.158,136.065 51.774,136.065 C53.391,136.065 54.701,137.376 54.701,138.992 C54.701,140.608 53.391,141.919 51.774,141.919 z" fill="#4A9C3B" id="circle6"/>
        <path d="M39.696,145.055 C37.214,145.055 35.201,143.043 35.201,140.56 C35.201,138.078 37.214,136.065 39.696,136.065 C42.178,136.065 44.191,138.078 44.191,140.56 C44.191,143.043 42.178,145.055 39.696,145.055 z" fill="#4A9C3B" id="circle8"/>
      </g>
      <g id="g20">
        <path d="M74.297,70.433 C74.297,60.052 65.881,51.636 55.501,51.636 L22.537,51.636 C22.537,68.129 35.906,81.497 52.398,81.497 L74.297,81.497 z" fill="#3FAE2A" id="path12"/>
        <path d="M27.863,51.636 C30.209,65.788 42.498,76.581 57.315,76.581 L74.298,76.581 L74.298,81.497 L52.398,81.497 C35.907,81.497 22.537,68.128 22.537,51.636 L27.863,51.636 z" fill="#379624" id="path14"/>
        <path d="M38.129,66.293 C35.517,66.293 33.399,64.176 33.399,61.564 C33.399,58.951 35.517,56.834 38.129,56.834 C40.741,56.834 42.859,58.951 42.859,61.564 C42.859,64.176 40.741,66.293 38.129,66.293 z" fill="#4A9C3B" id="circle16"/>
        <path d="M56.054,72.853 C52.504,72.853 49.627,69.975 49.627,66.426 C49.627,62.876 52.504,59.999 56.054,59.999 C59.603,59.999 62.481,62.876 62.481,66.426 C62.481,69.975 59.603,72.853 56.054,72.853 z" fill="#4A9C3B" id="circle18"/>
      </g>
      <g id="g32">
        <path d="M132.009,158.953 C139.35,151.612 139.35,139.711 132.009,132.37 L124.185,124.546 L108.7,140.031 C97.039,151.693 97.039,170.599 108.7,182.261 z" fill="#3FAE2A" id="path22"/>
        <path d="M112.466,178.496 C104.118,166.831 105.176,150.508 115.653,140.032 L127.661,128.024 L124.185,124.547 L108.7,140.032 C97.039,151.694 97.039,170.601 108.7,182.262 z" fill="#379624" id="path24"/>
        <path d="M125.153,159.618 C123.155,159.618 121.534,157.998 121.534,155.999 C121.534,154 123.155,152.38 125.153,152.38 C127.152,152.38 128.773,154 128.773,155.999 C128.773,157.998 127.152,159.618 125.153,159.618 z" fill="#4A9C3B" id="circle26"/>
        <path d="M112.728,162.623 C111.53,162.623 110.559,161.652 110.559,160.454 C110.559,159.256 111.53,158.284 112.728,158.284 C113.926,158.284 114.898,159.256 114.898,160.454 C114.898,161.652 113.926,162.623 112.728,162.623 z" fill="#4A9C3B" id="circle28"/>
        <path d="M116.565,168.192 C115.367,168.192 114.396,167.221 114.396,166.022 C114.396,164.824 115.367,163.853 116.565,163.853 C117.763,163.853 118.735,164.824 118.735,166.022 C118.735,167.221 117.763,168.192 116.565,168.192 z" fill="#4A9C3B" id="circle30"/>
      </g>
      <g id="g42">
        <path d="M132.009,67.629 C139.35,60.288 139.35,48.388 132.009,41.047 L108.7,17.738 L108.7,17.738 C97.039,29.399 97.039,48.307 108.7,59.968 L124.185,75.453 z" fill="#3FAE2A" id="path34"/>
        <path d="M112.466,21.504 C104.118,33.169 105.176,49.492 115.653,59.968 L127.661,71.976 L124.185,75.453 L108.7,59.968 C97.039,48.306 97.039,29.399 108.7,17.738 z" fill="#379624" id="path36"/>
        <path d="M115.115,39.976 C113.116,39.976 111.496,38.355 111.496,36.356 C111.496,34.358 113.116,32.737 115.115,32.737 C117.114,32.737 118.734,34.358 118.734,36.356 C118.734,38.355 117.114,39.976 115.115,39.976 z" fill="#4A9C3B" id="circle38"/>
        <path d="M125.153,52.704 C122.541,52.704 120.424,50.586 120.424,47.974 C120.424,45.362 122.541,43.244 125.153,43.244 C127.766,43.244 129.883,45.362 129.883,47.974 C129.883,50.586 127.766,52.704 125.153,52.704 z" fill="#4A9C3B" id="circle40"/>
      </g>
      <g id="g64">
        <path d="M198.819,100 L198.819,100 C198.819,88.506 189.501,79.188 178.007,79.188 L145.74,79.188 L145.74,120.811 L178.007,120.811 C189.501,120.812 198.819,111.494 198.819,100 z" fill="#3FAE2A" id="path44"/>
        <g id="g50">
          <path d="M176.969,128.504 C172.721,128.504 169.277,125.06 169.277,120.812 C169.277,116.564 172.721,113.12 176.969,113.12 C181.218,113.12 184.662,116.564 184.662,120.812 C184.662,125.06 181.218,128.504 176.969,128.504 z" fill="#FFFFFF" id="circle46"/>
          <path d="M176.969,124.658 C174.846,124.658 173.124,122.936 173.124,120.812 C173.124,118.688 174.846,116.966 176.969,116.966 C179.093,116.966 180.815,118.688 180.815,120.812 C180.815,122.936 179.093,124.658 176.969,124.658 z" fill="#5F4637" id="circle48"/>
        </g>
        <g id="g56">
          <path d="M176.969,86.88 C172.721,86.88 169.277,83.436 169.277,79.188 C169.277,74.94 172.721,71.496 176.969,71.496 C181.218,71.496 184.662,74.94 184.662,79.188 C184.662,83.436 181.218,86.88 176.969,86.88 z" fill="#FFFFFF" id="circle52"/>
          <path d="M176.969,83.034 C174.846,83.034 173.124,81.312 173.124,79.188 C173.124,77.064 174.846,75.342 176.969,75.342 C179.093,75.342 180.815,77.064 180.815,79.188 C180.815,81.312 179.093,83.034 176.969,83.034 z" fill="#5F4637" id="circle54"/>
        </g>
        <path d="M164.547,113.327 C163.349,113.327 162.378,112.356 162.378,111.158 C162.378,109.96 163.349,108.988 164.547,108.988 C165.745,108.988 166.716,109.96 166.716,111.158 C166.716,112.356 165.745,113.327 164.547,113.327 z" fill="#4A9C3B" id="circle58"/>
        <path d="M164.547,96.339 C161.935,96.339 159.817,94.222 159.817,91.61 C159.817,88.998 161.935,86.88 164.547,86.88 C167.159,86.88 169.277,88.998 169.277,91.61 C169.277,94.222 167.159,96.339 164.547,96.339 z" fill="#4A9C3B" id="circle60"/>
        <path d="M178.242,110.301 C174.662,110.301 171.76,107.398 171.76,103.818 C171.76,100.238 174.662,97.336 178.242,97.336 C181.822,97.336 184.725,100.238 184.725,103.818 C184.725,107.398 181.822,110.301 178.242,110.301 z" fill="#4A9C3B" id="circle62"/>
      </g>
      <path d="M40.993,100 L40.993,100 C40.993,73.814 62.221,52.585 88.408,52.585 L111.5,52.585 C137.687,52.585 158.915,73.813 158.915,100 L158.915,100 C158.915,126.186 137.687,147.415 111.5,147.415 L88.408,147.415 C62.221,147.415 40.993,126.186 40.993,100 z" fill="#A75A29" id="path66"/>
      <path d="M49.971,100 C49.971,78.806 67.214,61.564 88.407,61.564 L111.499,61.564 C132.694,61.564 149.936,78.806 149.936,99.999 C149.936,121.193 132.694,138.436 111.499,138.436 L88.407,138.436 C67.214,138.436 49.971,121.194 49.971,100 z" fill="#E89E6C" id="path68"/>
      <path d="M99.954,118.78 C89.582,118.78 81.174,110.372 81.174,100 C81.174,89.628 89.582,81.22 99.954,81.22 C110.326,81.22 118.734,89.628 118.734,100 C118.734,110.372 110.326,118.78 99.954,118.78 z" fill="#BD8158" id="circle70"/>
      <path d="M101.465,61.564 L101.465,138.436 L98.442,138.436 L98.442,61.564 z" fill="#BD8158" id="rect72"/>
      <path d="M122.239,73.717 C126.628,73.717 130.462,71.383 132.599,67.896 C126.537,63.899 119.288,61.564 111.499,61.564 L110.085,61.564 C110.085,68.276 115.527,73.717 122.239,73.717 z M89.822,61.564 L88.407,61.564 C80.62,61.564 73.37,63.898 67.309,67.895 C69.445,71.382 73.279,73.717 77.669,73.717 C84.381,73.717 89.822,68.276 89.822,61.564 z M125.651,99.999 C125.651,110.997 130.622,120.83 138.434,127.386 C145.528,120.409 149.936,110.711 149.936,99.999 C149.936,89.288 145.527,79.59 138.434,72.613 C130.621,79.169 125.651,89.002 125.651,99.999 z M132.599,132.105 C130.462,128.618 126.628,126.283 122.239,126.283 C115.527,126.283 110.085,131.724 110.085,138.437 L111.499,138.437 C119.288,138.436 126.537,136.102 132.599,132.105 z M77.669,126.283 C73.279,126.283 69.445,128.617 67.309,132.104 C73.37,136.101 80.62,138.436 88.407,138.436 L89.822,138.436 C89.822,131.724 84.381,126.283 77.669,126.283 z M74.257,99.999 C74.257,89.002 69.286,79.169 61.473,72.613 C54.38,79.59 49.971,89.288 49.971,99.999 C49.971,110.711 54.38,120.409 61.473,127.386 C69.287,120.83 74.257,110.997 74.257,99.999 z" fill="#BD8158" id="path74"/>
    </g>
  </g>
</svg>
