<?xml version="1.0" encoding="UTF-8"?>
<!DOCTYPE svg PUBLIC "-//W3C//DTD SVG 1.1//EN" "http://www.w3.org/Graphics/SVG/1.1/DTD/svg11.dtd">
<svg version="1.1" xmlns="http://www.w3.org/2000/svg" xmlns:xlink="http://www.w3.org/1999/xlink" x="0" y="0" width="612" height="612" viewBox="0, 0, 612, 612">
  <g id="Layer_1">
    <path d="M376,0 C376,1.08 376,2.16 376,3.3 C376,42.06 344.58,73.47 305.83,73.47 C267.07,73.47 235.66,42.05 235.66,3.3 L235.66,3.3 C235.66,2.16 235.66,1.08 235.66,0 L0,0 L0,612 L612,612 L612,0 z" fill="#654FF0"/>
    <path d="M415.353,498.941 L375.235,498.941 L375.235,478.882 L395.294,478.882 L395.294,458.824 L355.176,458.824 L355.176,378.588 L455.47,378.588 L455.47,458.824 L435.412,458.824 L435.412,478.882 L415.353,478.882 L415.353,498.941 z" fill="#FFFFFF"/>
    <path d="M355.176,294.294 L355.176,214.059 L455.47,214.059 L455.47,294.294 L355.176,294.294 z" fill="#FFFFFF"/>
    <path d="M156.529,294.294 L156.529,214.059 L256.823,214.059 L256.823,294.294 L156.529,294.294 z" fill="#FFFFFF"/>
    <path d="M156.529,458.823 L156.529,378.588 L256.823,378.588 L256.823,458.823 L156.529,458.823 z" fill="#FFFFFF"/>
  </g>
</svg>
